<svg width="43" height="43" viewBox="0 0 43 43" fill="none" xmlns="http://www.w3.org/2000/svg">
<path d="M31.7684 32.3704L37.324 0H5.67603L11.2316 32.3704H17.4752L17.8794 36.722H15.4628L21.7408 43L27.5372 36.722H25.1206L25.6022 32.3704H31.7684ZM17.0538 18.404C17.1656 18.232 17.2946 18.0686 17.4236 17.9138L21.4398 12.5646L25.4818 17.9482C26.2386 18.8598 26.6944 20.0294 26.6944 21.3108C26.6944 24.2176 24.338 26.574 21.4312 26.574C18.5244 26.574 16.168 24.2176 16.168 21.3108C16.1852 20.2358 16.5034 19.2382 17.0538 18.404ZM35.604 1.4534L34.6494 7.0348C32.7746 6.5704 30.4354 7.7314 30.4354 7.7314C26.0924 10.148 20.7776 8.213 20.7776 8.213C16.9162 5.3148 13.5364 6.7596 13.5364 6.7596C11.0768 7.998 9.39983 8.0496 8.50543 7.9292L7.39603 1.4534H35.604Z" fill="#F0B90B"/>
</svg>
