<svg width="43" height="43" viewBox="0 0 43 43" fill="none" xmlns="http://www.w3.org/2000/svg">
<path d="M21.2764 8.0324C21.93 8.0324 22.4546 7.4992 22.4546 6.8542V1.1782C22.4546 0.5246 21.9214 0 21.2764 0C20.6314 0 20.0982 0.5332 20.0982 1.1782V6.8456C20.0982 7.4992 20.6228 8.0324 21.2764 8.0324ZM28.2424 9.8556C28.8014 10.1824 29.5324 9.9846 29.8592 9.4256L32.6886 4.515C33.0154 3.956 32.8176 3.225 32.2586 2.8982C31.6996 2.5714 30.9686 2.7692 30.6418 3.3282L27.8124 8.2388C27.4856 8.8064 27.6834 9.5288 28.2424 9.8556ZM34.8988 15.437L39.8094 12.599C40.3684 12.2722 40.5662 11.5498 40.2394 10.9822C39.9126 10.4232 39.1902 10.2254 38.6226 10.5522L33.712 13.3902C33.153 13.717 32.9552 14.4394 33.282 15.007C33.6174 15.566 34.3398 15.7638 34.8988 15.437ZM41.8218 20.3218H36.1544C35.5008 20.3218 34.9762 20.855 34.9762 21.5C34.9762 22.1536 35.5094 22.6782 36.1544 22.6782H41.8218C42.4754 22.6782 43 22.145 43 21.5C43 20.8464 42.4668 20.3218 41.8218 20.3218ZM13.1494 9.4256C13.4762 9.9846 14.1986 10.1824 14.7662 9.8556C15.3252 9.5288 15.523 8.8064 15.1962 8.2388L12.3668 3.3282C12.04 2.7692 11.3176 2.5714 10.75 2.8982C10.191 3.225 9.9932 3.9474 10.32 4.515L13.1494 9.4256ZM3.1906 12.599L8.1012 15.437C8.6602 15.7638 9.3912 15.566 9.718 15.007C10.0448 14.448 9.847 13.717 9.288 13.3902L4.3774 10.5522C3.8184 10.2254 3.0874 10.4232 2.7606 10.9822C2.4338 11.5498 2.623 12.2722 3.1906 12.599ZM8.0324 21.5C8.0324 20.8464 7.4992 20.3218 6.8542 20.3218H1.1782C0.5332 20.3218 0 20.8464 0 21.5C0 22.1536 0.5332 22.6782 1.1782 22.6782H6.8456C7.4992 22.6782 8.0324 22.1536 8.0324 21.5ZM21.2764 34.9676C20.6228 34.9676 20.0982 35.5008 20.0982 36.1458V41.8132C20.0982 42.4668 20.6314 42.9914 21.2764 42.9914C21.9214 42.9914 22.4546 42.4582 22.4546 41.8132V36.1458C22.4546 35.5008 21.9214 34.9676 21.2764 34.9676ZM29.8506 33.5744C29.5238 33.0154 28.8014 32.8176 28.2338 33.1444C27.6662 33.4712 27.477 34.1936 27.8038 34.7612L30.6332 39.6718C30.96 40.2308 31.6824 40.4286 32.25 40.1018C32.8176 39.775 33.0068 39.0526 32.68 38.485L29.8506 33.5744ZM39.8094 30.401L34.8988 27.563C34.3398 27.2362 33.6088 27.434 33.282 27.993C32.9552 28.552 33.153 29.283 33.712 29.6098L38.6226 32.4478C39.1816 32.7746 39.9126 32.5768 40.2394 32.0178C40.5662 31.4502 40.377 30.7278 39.8094 30.401ZM14.3104 33.1444C13.7514 32.8176 13.0204 33.0154 12.6936 33.5744L9.8642 38.485C9.5374 39.044 9.7352 39.775 10.2942 40.1018C10.8532 40.4286 11.5842 40.2308 11.911 39.6718L14.7404 34.7612C15.0672 34.1936 14.8694 33.4712 14.3104 33.1444ZM7.6454 27.563L2.7348 30.401C2.1758 30.7278 1.978 31.4502 2.3048 32.0178C2.6316 32.5854 3.354 32.7746 3.9216 32.4478L8.8322 29.6098C9.3912 29.283 9.589 28.5606 9.2622 27.993C8.9354 27.434 8.2044 27.2362 7.6454 27.563ZM21.5086 9.2364C14.7232 9.2364 9.2278 14.7404 9.2278 21.5258C9.2278 28.3112 14.7232 33.8152 21.5086 33.8152C28.294 33.8152 33.7894 28.3112 33.7894 21.5258C33.7894 14.7404 28.294 9.2364 21.5086 9.2364ZM20.7862 15.9358C20.7862 15.7036 20.8722 15.5058 21.0528 15.3338C21.2248 15.1618 21.4398 15.0758 21.6892 15.0758C21.9472 15.0758 22.1622 15.1618 22.3342 15.3338C22.5062 15.5058 22.6008 15.7036 22.6008 15.9358V21.027C22.6008 21.2592 22.5148 21.457 22.3342 21.6204C22.1622 21.7838 21.9386 21.8698 21.6892 21.8698C21.4398 21.8698 21.2334 21.7838 21.0528 21.6204C20.8808 21.457 20.7862 21.2592 20.7862 21.027V15.9358ZM27.563 24.1746C27.2276 24.9056 26.7718 25.5334 26.1956 26.0752C25.6194 26.617 24.9486 27.047 24.1746 27.3652C23.4006 27.6834 22.575 27.8382 21.6892 27.8382C20.812 27.8382 19.995 27.6748 19.221 27.3652C18.447 27.047 17.7676 26.617 17.1914 26.0752C16.6152 25.5334 16.1594 24.897 15.824 24.1746C15.4886 23.4436 15.3252 22.6696 15.3252 21.8354C15.3252 21.3624 15.3854 20.898 15.5058 20.4422C15.6262 19.9864 15.7896 19.5564 16.0132 19.1436C16.2282 18.7308 16.5034 18.3524 16.8216 17.9912C17.1484 17.63 17.5096 17.3118 17.9052 17.028C18.1116 16.8818 18.3438 16.8302 18.5846 16.8646C18.8254 16.899 19.0232 17.0108 19.178 17.2C19.3328 17.3892 19.3844 17.5956 19.35 17.8278C19.3156 18.06 19.1952 18.2492 18.9974 18.3868C18.3954 18.7996 17.9396 19.2984 17.6214 19.9004C17.3032 20.5024 17.1484 21.1388 17.1484 21.8268C17.1484 22.4116 17.2688 22.9706 17.501 23.4952C17.7418 24.0198 18.06 24.4756 18.4814 24.8626C18.8942 25.2496 19.3758 25.5592 19.9348 25.7914C20.4938 26.0236 21.0786 26.1354 21.7064 26.1354C22.3342 26.1354 22.9276 26.0236 23.478 25.7914C24.037 25.5592 24.5186 25.2582 24.9314 24.8626C25.3442 24.4756 25.671 24.0198 25.9118 23.4952C26.1526 22.9706 26.273 22.4116 26.273 21.8268C26.273 21.1302 26.101 20.468 25.757 19.8488C25.413 19.2296 24.94 18.7136 24.3208 18.318C24.1144 18.1804 23.9854 17.9998 23.9424 17.7676C23.8994 17.5354 23.951 17.3204 24.0886 17.1226C24.2262 16.9334 24.424 16.8216 24.6734 16.7786C24.9228 16.7442 25.1464 16.7872 25.3528 16.9248C25.7828 17.2086 26.1612 17.5354 26.488 17.8966C26.8234 18.2578 27.1072 18.6534 27.3394 19.0662C27.5802 19.4876 27.7608 19.9262 27.8812 20.3992C28.0016 20.8722 28.0618 21.3452 28.0618 21.8268C28.0704 22.6696 27.8984 23.4436 27.563 24.1746Z" fill="#F0B90B"/>
</svg>
