<svg width="48" height="43" viewBox="0 0 48 43" fill="none" xmlns="http://www.w3.org/2000/svg">
<g clip-path="url(#clip0)">
<path d="M42.307 26.875H34.6626C33.8199 26.875 33.132 27.5371 33.132 28.3368C33.132 29.1451 33.8199 29.7986 34.6626 29.7986H42.307C43.1497 29.7986 43.8376 29.1365 43.8376 28.3368C43.829 27.5371 43.1411 26.875 42.307 26.875ZM42.307 40.0657H34.6626C33.8199 40.0657 33.132 40.7278 33.132 41.5275C33.132 42.3358 33.8199 42.9893 34.6626 42.9893H42.307C43.1497 42.9893 43.8376 42.3272 43.8376 41.5275C43.829 40.7278 43.1411 40.0657 42.307 40.0657ZM1.53109 32.7394C0.688398 32.7394 0.000488281 33.4015 0.000488281 34.2012V36.1532C0.000488281 36.9615 0.688398 37.615 1.53109 37.615C2.37378 37.615 3.06169 36.9529 3.06169 36.1532V34.2012C3.06169 33.4015 2.37378 32.7394 1.53109 32.7394Z" fill="#F0B90B"/>
<path d="M47.7843 0.0142145C46.7352 0.263582 45.1874 0.822509 44.2673 1.49322C43.3386 2.16393 43.1839 3.23019 43.1667 3.71173C43.1581 4.06428 43.1581 4.58022 43.1667 4.82959C42.9517 4.78659 42.4702 4.82099 41.5673 5.38851C41.6275 5.20794 41.7049 4.95857 41.7565 4.76939C41.8424 4.45123 41.9542 3.72893 41.4813 3.11841C41.0084 2.50789 40.1055 1.86297 39.4692 1.50182C39.3918 1.45883 39.4004 1.48462 39.4004 1.48462C39.4004 1.48462 39.151 2.32731 39.108 3.2044C39.0822 3.88371 39.409 4.7264 39.9163 5.15634C40.3978 5.56049 41.1631 5.65508 41.1717 5.65508C41.0771 5.72387 40.9826 5.79266 40.8794 5.87005C40.8794 5.87005 40.0969 6.36878 39.2628 7.43504C39.3144 7.06529 39.2972 6.52356 38.9274 6.05063C38.4545 5.44011 37.5516 4.79519 36.9153 4.43404C36.8379 4.39104 36.8465 4.41684 36.8465 4.41684C36.8465 4.41684 36.5971 5.25953 36.5541 6.13661C36.5283 6.81593 36.8551 7.65862 37.3624 8.08856C37.7236 8.39812 38.2567 8.5271 38.4889 8.5701C38.1191 9.22361 37.7838 9.98891 37.5516 10.9004C37.1647 10.1523 36.0296 8.5271 33.6305 9.2924C33.6305 9.2924 30.5693 10.7542 28.0241 13.2049C28.0241 13.2049 22.4176 16.1371 19.3564 12.2246C19.3564 12.2246 14.7732 6.36019 9.67405 6.36019C9.67405 6.36019 7.12878 5.87005 5.09085 6.36019C5.09085 6.36019 7.63612 8.80227 8.15205 11.2443C8.15205 11.2443 8.65938 21.0127 15.7964 21.9929C15.7964 21.9929 12.7352 22.9732 11.2132 24.435C11.2132 24.435 10.19 24.9252 6.11411 24.9252C6.11411 24.9252 4.58351 24.9252 7.13738 26.387C7.13738 26.387 13.5091 30.2995 17.585 30.2995V33.7132H3.56885V36.6454H33.6391V39.3283H43.3215V30.5402H33.6391V33.7132H21.9188V30.0501C21.9188 30.0501 32.1085 29.8093 33.1318 21.0127C33.1318 21.0127 33.6391 20.5225 33.1318 17.1002C33.1318 17.1002 33.321 13.8326 37.3022 12.9297C37.3108 13.7294 37.3796 14.9935 37.715 15.6298C37.715 15.6298 38.2223 16.61 38.7383 16.1199C38.7383 16.1199 39.2456 16.1199 38.7383 15.1396C38.7383 15.1396 38.3685 14.168 38.4201 12.7492C38.7554 12.7148 39.1166 12.6976 39.5036 12.6976C39.5036 12.6976 39.7615 12.2074 39.2456 12.1128C39.2456 12.1128 38.8844 12.1386 38.4803 11.9667C38.6179 10.9692 38.9876 9.81693 39.7959 8.66468C39.8217 8.90545 39.9163 9.40419 40.1915 9.76534C40.5956 10.2899 41.4383 10.6768 42.152 10.7112C43.0721 10.7542 43.9664 10.5822 43.9664 10.5822C43.9664 10.5822 43.9836 10.5908 43.9492 10.5134C43.6396 9.87713 43.0463 8.95705 42.453 8.44971C41.8596 7.94238 41.0943 7.98537 40.759 8.03697C40.587 8.06276 40.3634 8.10576 40.1829 8.14015C40.5956 7.64142 41.0943 7.13408 41.6963 6.65255C41.9112 6.76433 42.3928 7.0137 42.6679 7.09969C43.975 7.54683 45.0412 7.37485 45.0412 7.37485C45.0412 7.37485 44.4307 7.51243 44.0438 7.50384C43.6568 7.49524 43.1409 7.42645 42.6249 7.29746C42.109 7.16848 41.6189 6.91051 41.6189 6.91051C41.6189 6.91051 41.9542 7.58982 42.5046 7.89938C43.0893 8.22614 44.0266 8.27773 44.6887 8.03697C45.5486 7.73601 46.3053 7.24587 46.3053 7.24587C46.3053 7.24587 46.3225 7.24587 46.2623 7.18568C45.7119 6.71274 44.7919 6.09362 44.0438 5.85285C43.5364 5.68947 43.0549 5.78406 42.7109 5.92164C42.7453 5.89585 42.7711 5.87865 42.8055 5.85285C42.8055 5.85285 43.8116 5.37131 43.3215 4.88118C43.6396 4.7264 44.3533 4.36525 44.6973 4.11588C46.3397 2.96363 47.0104 1.58781 47.0104 1.58781C47.0104 1.58781 46.6836 2.4133 46.3483 2.85184C46.0215 3.29899 45.5142 3.83212 44.9208 4.33085C44.3275 4.82099 43.5966 5.17354 43.5966 5.17354C43.5966 5.17354 44.7231 5.34552 45.5744 4.95857C46.4772 4.55442 47.3027 3.50536 47.5521 2.53369C47.8789 1.28685 47.8789 0.00561565 47.8789 0.00561561C47.8789 0.00561557 47.9047 -0.0115822 47.7843 0.0142145ZM18.8576 33.7132V30.2909C18.8576 30.2909 19.6229 30.2909 20.6376 30.1447V33.7132H18.8576ZM37.9214 7.7962C37.629 7.36625 37.4054 6.91911 37.2764 6.56656C37.1475 6.214 37.0959 5.62068 37.0959 5.62068C37.0959 5.62068 37.2592 6.64395 38.1019 7.70161C38.2309 7.86499 38.4631 8.09716 38.6523 8.27773C38.6093 8.35512 38.5663 8.43251 38.5147 8.5099C38.3943 8.37232 38.1277 8.10576 37.9214 7.7962ZM40.6644 9.10323C41.6877 9.99751 42.7367 10.2469 42.7367 10.2469C42.7367 10.2469 42.1176 10.1437 41.7651 9.98891C41.4125 9.83413 40.9654 9.58476 40.544 9.26661C40.2259 9.02584 39.9507 8.73347 39.8389 8.60449C39.8905 8.5357 39.9421 8.45831 40.0023 8.38952C40.1743 8.59589 40.4666 8.93125 40.6644 9.10323ZM40.4752 4.86398C40.1829 4.43404 39.9593 3.9869 39.8303 3.63434C39.7013 3.28179 39.6497 2.68847 39.6497 2.68847C39.6497 2.68847 39.8131 3.71173 40.6558 4.76939C40.8278 4.99296 41.1975 5.34552 41.3867 5.5089C41.3179 5.56049 41.2405 5.60348 41.1631 5.66368C41.1631 5.65508 40.759 5.29392 40.4752 4.86398Z" fill="#F0B90B"/>
</g>
<defs>
<clipPath id="clip0">
<rect width="47.8711" height="43" fill="white"/>
</clipPath>
</defs>
</svg>
