<svg width="52" height="43" viewBox="0 0 52 43" fill="none" xmlns="http://www.w3.org/2000/svg">
<path d="M32.1124 19.4962C32.1124 19.4962 21.1646 19.4962 12.2034 27.4942C12.2034 27.4942 7.7228 19.4962 0.258 19.4962C0.258 19.4962 8.2216 30.9944 0.258 42.4926C0.258 42.4926 6.235 43.989 12.2034 33.9958C12.2034 33.9958 19.6682 43 32.1124 43C32.1124 43 44.0578 43 51.5312 31.003C51.5226 31.003 43.0602 18.9974 32.1124 19.4962ZM37.3326 32.4994C35.5438 32.4994 34.099 31.046 34.099 29.2486C34.099 27.4512 35.5438 25.9978 37.3326 25.9978C39.1214 25.9978 40.5662 27.4512 40.5662 29.2486C40.5748 31.046 39.1214 32.4994 37.3326 32.4994ZM39.8266 7.4992H38.3302C31.863 13.0032 25.886 7.4992 25.886 7.4992H24.8884C18.4212 12.4958 12.943 7.4992 12.943 7.4992H11.9454C5.977 12.4958 0 7.998 0 7.998V10.9994C6.4672 17.501 11.4466 10.5006 11.4466 10.5006H12.4442C18.4212 17.501 24.8884 10.5006 24.8884 10.5006H25.886C32.852 17.501 38.829 10.5006 38.829 10.5006H39.8266C46.2938 16.5034 51.772 10.9994 51.772 10.9994V7.998L50.7744 8.4968C44.806 11.997 39.8266 7.4992 39.8266 7.4992ZM50.7744 0.9976C44.806 4.4978 39.8266 0 39.8266 0H38.3302C31.863 5.504 25.886 0 25.886 0H24.8884C18.4212 4.9966 12.943 0 12.943 0H11.9454C5.977 4.9966 0 0.4988 0 0.4988V3.5002C6.4672 10.0018 11.4466 3.0014 11.4466 3.0014H12.4442C18.4212 10.0018 24.8884 3.0014 24.8884 3.0014H25.886C32.852 10.0018 38.829 3.0014 38.829 3.0014H39.8266C46.2938 9.0042 51.772 3.5002 51.772 3.5002V0.4988L50.7744 0.9976Z" fill="#F0B90B"/>
</svg>
