<svg width="58" height="43" viewBox="0 0 58 43" fill="none" xmlns="http://www.w3.org/2000/svg">
<g clip-path="url(#clip0)">
<path d="M48.1531 14.577L50.2167 13.4934L43.2074 0L32.753 34.1506L28.9669 18.4126L23.4242 27.0556L20.7126 11.223L14.7947 23.822H0V26.1784H16.2699L19.6723 18.9372L22.1366 33.3852L27.9778 24.2778L32.4801 43L43.7702 6.1404L48.1531 14.577Z" fill="#F0B90B"/>
<path d="M56.7315 18.9603C55.9214 18.1433 54.8214 17.6875 53.6361 17.6875C52.9625 17.6875 52.2888 17.8423 51.6749 18.1347C51.1974 18.3583 50.7625 18.6765 50.3873 19.0463C50.0121 18.6765 49.5687 18.3669 49.0997 18.1347C48.4857 17.8423 47.8035 17.6875 47.1384 17.6875C45.9531 17.6875 44.8531 18.1433 44.043 18.9603C43.233 19.7773 42.7896 20.8867 42.7896 22.0907C42.7896 24.9975 45.2369 27.2593 48.9462 30.6735L49.0997 30.8111L50.4043 31.9893L50.6602 31.7571L51.7005 30.8111L51.854 30.6735C55.5633 27.2593 58.0106 24.9975 58.0106 22.0907C57.985 20.8867 57.5416 19.7773 56.7315 18.9603Z" fill="#F0B90B"/>
</g>
<defs>
<clipPath id="clip0">
<rect width="58" height="43" fill="white"/>
</clipPath>
</defs>
</svg>
