<svg width="43" height="43" viewBox="0 0 43 43" fill="none" xmlns="http://www.w3.org/2000/svg">
<g clip-path="url(#clip0)">
<path d="M31.6913 8.125C25.4477 8.125 20.3823 13.1904 20.3823 19.434C20.3823 25.6862 25.4477 30.7516 31.6913 30.7516C37.9349 30.7516 43.0003 25.6862 43.0003 19.434C43.0003 13.1904 37.9349 8.125 31.6913 8.125ZM31.6913 28.4296C26.7291 28.4296 22.7043 24.4048 22.7043 19.434C22.7043 14.4718 26.7291 10.447 31.6913 10.447C36.6535 10.447 40.6783 14.4718 40.6783 19.434C40.6783 24.4048 36.6535 28.4296 31.6913 28.4296Z" fill="#F0B90B"/>
<path d="M21.4999 0C15.2563 0 10.1909 5.0654 10.1909 11.309C10.1909 17.5526 15.2563 22.618 21.4999 22.618C27.7435 22.618 32.8089 17.5526 32.8089 11.309C32.8089 5.0654 27.7435 0 21.4999 0ZM21.4999 20.296C16.5377 20.296 12.5129 16.2712 12.5129 11.309C12.5129 6.3468 16.5377 2.322 21.4999 2.322C26.4621 2.322 30.4869 6.3468 30.4869 11.309C30.4869 16.2712 26.4621 20.296 21.4999 20.296Z" fill="#F0B90B"/>
<path d="M11.309 8.125C5.0654 8.125 0 13.1904 0 19.434C0 25.6776 5.0654 30.743 11.309 30.743C17.5526 30.743 22.618 25.6776 22.618 19.434C22.618 13.1904 17.5526 8.125 11.309 8.125ZM11.309 28.421C6.3468 28.421 2.322 24.3962 2.322 19.434C2.322 14.4718 6.3468 10.447 11.309 10.447C16.2712 10.447 20.296 14.4718 20.296 19.434C20.296 24.3962 16.2712 28.421 11.309 28.421Z" fill="#F0B90B"/>
<path d="M14.9726 20.3828C8.72897 20.3828 3.66357 25.4482 3.66357 31.6918C3.66357 37.9354 8.72897 43.0008 14.9726 43.0008C21.2248 43.0008 26.2902 37.9354 26.2902 31.6918C26.2902 25.4482 21.2248 20.3828 14.9726 20.3828ZM14.9726 40.6788C10.0104 40.6788 5.98557 36.654 5.98557 31.6918C5.98557 26.7296 10.0104 22.7048 14.9726 22.7048C19.9434 22.7048 23.9682 26.7296 23.9682 31.6918C23.9682 36.654 19.9434 40.6788 14.9726 40.6788Z" fill="#F0B90B"/>
<path d="M28.2428 20.3828C22.0078 20.3828 16.9424 25.4482 16.9424 31.6918C16.9424 37.9354 22.0078 43.0008 28.2428 43.0008C34.495 43.0008 39.5604 37.9354 39.5604 31.6918C39.5604 25.4482 34.495 20.3828 28.2428 20.3828ZM28.2428 40.6788C23.2806 40.6788 19.2644 36.654 19.2644 31.6918C19.2644 26.7296 23.2806 22.7048 28.2428 22.7048C33.2136 22.7048 37.2384 26.7296 37.2384 31.6918C37.2384 36.654 33.2136 40.6788 28.2428 40.6788Z" fill="#F0B90B"/>
</g>
<defs>
<clipPath id="clip0">
<rect width="43" height="43" fill="white"/>
</clipPath>
</defs>
</svg>
