<svg width="45" height="43" viewBox="0 0 45 43" fill="none" xmlns="http://www.w3.org/2000/svg">
<path d="M3.569 14.9726C2.7176 15.867 2.193 17.071 2.193 18.3954C2.193 21.1646 4.4806 23.4092 7.3014 23.4092C9.3052 23.4092 11.0338 22.274 11.8766 20.6228C13.1666 22.3084 15.2134 23.4092 17.5268 23.4092C21.4226 23.4092 24.5874 20.3046 24.5874 16.4776C24.5874 12.8742 21.7924 9.9244 18.2148 9.5804C18.8598 8.6086 19.2382 7.4476 19.2382 6.2006C19.221 2.7778 16.3916 0 12.9 0C9.5632 0 6.837 2.537 6.5962 5.7448C6.5102 5.7362 6.4156 5.7276 6.3296 5.7276C3.5088 5.7362 1.2126 7.9808 1.2126 10.75C1.2126 12.5216 2.1586 14.0782 3.569 14.9726ZM11.438 24.3638H15.3338V31.5276H11.438V24.3638ZM35.2858 17.2C35.2858 17.2 30.9084 13.8546 27.5028 18.6362C27.5028 18.6362 33.3422 16.727 35.2858 20.5454C35.2858 20.5454 37.7196 16.727 43.0688 18.6362C43.0774 18.6362 39.1816 13.8546 35.2858 17.2ZM29.5582 9.2192C29.5582 9.2192 31.1406 5.6502 35.9566 6.6134C35.9566 6.6134 32.0092 3.0272 29.1196 6.364C29.1196 6.364 24.9486 4.0592 22.661 8.5656C22.661 8.5742 27.3996 6.2092 29.5582 9.2192ZM36.722 4.2398C36.722 4.2398 39.1386 1.6684 42.9398 3.8786C42.9398 3.8786 40.6694 -0.3182 37.2036 1.6856C37.2036 1.6856 34.3484 -1.4878 31.0546 1.6856C31.0546 1.6856 35.7932 1.0492 36.722 4.2398ZM0 33.4454H44.29V37.2638H0V33.4454ZM0 39.1816H44.29V43H0V39.1816Z" fill="#F0B90B"/>
</svg>
