<svg width="346" height="148" viewBox="0 0 346 148" fill="none" xmlns="http://www.w3.org/2000/svg">
<g clip-path="url(#clip0)">
<rect width="346" height="148" fill="#F5F5F5"/>
<path fill-rule="evenodd" clip-rule="evenodd" d="M17.4164 102.262L25.1664 94.5121L32.2374 101.583L24.4874 109.333C13.8756 119.945 13.8756 137.15 24.4874 147.762L17.4164 154.833C2.89927 140.316 2.89927 116.779 17.4164 102.262Z" fill="url(#paint0_angular)"/>
<path d="M346 17H142V21H346V17Z" fill="#E6E8EA"/>
<path d="M346 39H142V43H346V39Z" fill="#E6E8EA"/>
<path d="M142 61H346V65H142V61Z" fill="#E6E8EA"/>
<path d="M346 83H142V87H346V83Z" fill="#E6E8EA"/>
<path d="M142 105H346V109H142V105Z" fill="#E6E8EA"/>
<path d="M346 127H142V131H346V127Z" fill="#E6E8EA"/>
<rect x="214" y="105" width="8" height="43" fill="#28D294"/>
<rect x="250" y="39" width="8" height="109" fill="#28D294"/>
<rect x="286" y="8" width="8" height="140" fill="#28D294"/>
<rect x="178" y="118" width="8" height="30" fill="#28D294"/>
<rect x="178" y="138" width="8" height="10" fill="#02C076"/>
<rect x="214" y="127" width="8" height="21" fill="#02C076"/>
<rect x="250" y="105" width="8" height="43" fill="#02C076"/>
<rect x="286" y="76" width="8" height="72" fill="#02C076"/>
<rect x="142" y="127" width="8" height="21" fill="#28D294"/>
<rect x="113.234" y="32.0852" width="10.02" height="10.02" transform="rotate(135 113.234 32.0852)" fill="#CB8C54"/>
<path d="M90.2344 58.9967L102.233 58.9967C104.994 58.9967 107.233 56.7582 107.233 53.9967L107.233 41.8196" stroke="#CB8C54" stroke-width="10"/>
<g style="mix-blend-mode:soft-light" opacity="0.6">
<path d="M90.2344 58.9967L102.233 58.9967C104.994 58.9967 107.233 56.7582 107.233 53.9967L107.233 41.8196" stroke="url(#paint1_linear)" stroke-width="10"/>
</g>
<g style="mix-blend-mode:soft-light" opacity="0.6">
<path d="M36.1096 97.5737L43.1948 90.4885L41.1704 88.4641L27 102.635H41.1704L36.1096 97.5737Z" fill="url(#paint2_linear)"/>
</g>
<path d="M51.6054 106.054L39.6172 94.0657" stroke="#CB8C54" stroke-width="10"/>
<path d="M72.7859 46.2153C76.4953 49.925 82.5095 49.925 86.2189 46.2153C89.9283 42.5056 89.9283 36.491 86.2189 32.7812L72.7859 46.2153Z" fill="#CB8C54"/>
<g style="mix-blend-mode:soft-light" opacity="0.6">
<path d="M72.7859 46.2153C76.4953 49.925 82.5095 49.925 86.2189 46.2153C89.9283 42.5056 89.9283 36.491 86.2189 32.7812L72.7859 46.2153Z" fill="url(#paint3_linear)"/>
</g>
<path d="M72.7821 46.2163C69.0726 42.5066 69.0726 36.492 72.7821 32.7823C76.4915 29.0726 82.5056 29.0726 86.2151 32.7823L72.7821 46.2163Z" fill="#2B2F36"/>
<rect width="10.02" height="10.02" transform="matrix(0.707107 0.707107 0.707107 -0.707107 36.2988 32.0852)" fill="#CB8C54"/>
<path d="M85.7813 144.832L85.7812 128.37" stroke="#CB8C54" stroke-width="10"/>
<path d="M83.9902 85.4758L83.9902 131.419" stroke="#2B2F36" stroke-width="13.5714"/>
<g style="mix-blend-mode:soft-light" opacity="0.6">
<path d="M83.9902 96.4758L83.9902 131.325" stroke="url(#paint4_linear)" stroke-width="14.2857"/>
</g>
<path d="M47.24 104.211L58.8492 115.82C62.449 119.42 68.6041 116.87 68.6041 111.779L68.6041 89.7727L90.791 89.7727" stroke="#2B2F36" stroke-width="13.5714"/>
<path d="M59.2988 58.9967L47.3006 58.9967C44.5392 58.9967 42.3006 56.7582 42.3006 53.9967L42.3006 41.8196" stroke="#CB8C54" stroke-width="10"/>
<g style="mix-blend-mode:soft-light" opacity="0.6">
<path d="M59.2988 58.9967L47.3006 58.9967C44.5392 58.9967 42.3006 56.7582 42.3006 53.9967L42.3006 41.8196" stroke="url(#paint5_linear)" stroke-width="10"/>
</g>
<path fill-rule="evenodd" clip-rule="evenodd" d="M59.2988 66.9954L52.3006 66.9954L52.3006 53.9954L59.2988 53.9954L59.2988 66.9954Z" fill="#F8D33A"/>
<path fill-rule="evenodd" clip-rule="evenodd" d="M95.7324 66.9954L90.7342 66.9954L90.7342 53.9954L95.7324 53.9954L95.7324 66.9954Z" fill="#F8D33A"/>
<path d="M73.2075 53.9836L59.2988 53.9836L59.2988 85.4748H90.7903V53.9836L85.9912 53.9836L79.5993 60.3755L73.2075 53.9836Z" fill="#F8D33A"/>
<g style="mix-blend-mode:soft-light" opacity="0.6">
<path d="M73.2075 53.9836L59.2988 53.9836L59.2988 85.4748H90.7903V53.9836L85.9912 53.9836L79.5993 60.3755L73.2075 53.9836Z" fill="url(#paint6_linear)"/>
</g>
<path d="M48.2556 95.5493L41.1704 88.4641L27 102.635H41.1704L48.2556 95.5493Z" fill="#F8D33A"/>
<path d="M80.7706 137.675L80.7715 144.832L80.7715 147.695L100.811 147.695L90.7915 137.675H80.7706Z" fill="#F8D33A"/>
<g style="mix-blend-mode:soft-light" opacity="0.6">
<path d="M80.7715 137.675L80.7715 147.695L100.811 147.695L90.7915 137.675H80.7715Z" fill="url(#paint7_linear)"/>
</g>
<path d="M254 100L227 73" stroke="#28D294" stroke-width="2"/>
<path d="M254 125L266 113" stroke="#02C076" stroke-width="2"/>
<path d="M290 56L318 28" stroke="#28D294" stroke-width="2"/>
<path d="M276 56L290 70" stroke="#28D294" stroke-width="2"/>
<path d="M297 55H301C308.18 55 314 60.8203 314 68V72H310C302.82 72 297 66.1797 297 59V55Z" fill="#28D294"/>
<path d="M297 36H299.588C304.234 36 308 32.2339 308 27.5882V25H305.412C300.766 25 297 28.7661 297 33.4118V36Z" fill="#28D294"/>
<path d="M238 113H240.353C244.576 113 248 116.424 248 120.647V123H245.647C241.424 123 238 119.576 238 115.353V113Z" fill="#02C076"/>
<path d="M231 111H229.353C226.397 111 224 113.397 224 116.353V118H225.647C228.603 118 231 115.603 231 112.647V111Z" fill="#28D294"/>
<path d="M199 136.467L200.529 137.944C203.275 140.596 207.725 140.596 210.471 137.944L212 136.467L210.471 134.989C207.725 132.337 203.275 132.337 200.529 134.989L199 136.467Z" fill="#28D294"/>
<path d="M271 90H273.824C278.892 90 283 94.1084 283 99.1765V102H280.176C275.108 102 271 97.8916 271 92.8235V90Z" fill="#28D294"/>
<rect x="142" y="138" width="8" height="10" fill="#02C076"/>
<path d="M100 102L103 99L106 102L103 105L100 102Z" fill="#E6E8EA"/>
<path d="M19 75.5L20.5 74L22 75.5L20.5 77L19 75.5Z" fill="#E6E8EA"/>
<path d="M78 9.5L80.5 7L83 9.5L80.5 12L78 9.5Z" fill="#E6E8EA"/>
</g>
<defs>
<radialGradient id="paint0_angular" cx="0" cy="0" r="1" gradientUnits="userSpaceOnUse" gradientTransform="translate(44.9529 128.741) rotate(140.528) scale(39.0902)">
<stop offset="0.000829754" stop-color="white" stop-opacity="0"/>
<stop offset="0.0326271" stop-color="white" stop-opacity="0"/>
<stop offset="0.236779" stop-color="white"/>
</radialGradient>
<linearGradient id="paint1_linear" x1="77.1139" y1="50.4082" x2="107.233" y2="50.4082" gradientUnits="userSpaceOnUse">
<stop/>
<stop offset="1" stop-opacity="0"/>
</linearGradient>
<linearGradient id="paint2_linear" x1="27" y1="102.635" x2="36.8349" y2="102.635" gradientUnits="userSpaceOnUse">
<stop/>
<stop offset="1" stop-opacity="0"/>
</linearGradient>
<linearGradient id="paint3_linear" x1="69.8465" y1="54.4325" x2="85.0442" y2="39.2359" gradientUnits="userSpaceOnUse">
<stop/>
<stop offset="1" stop-opacity="0"/>
</linearGradient>
<linearGradient id="paint4_linear" x1="67.7611" y1="128.324" x2="87.8324" y2="128.324" gradientUnits="userSpaceOnUse">
<stop/>
<stop offset="1" stop-opacity="0"/>
</linearGradient>
<linearGradient id="paint5_linear" x1="72.4193" y1="50.4082" x2="42.3006" y2="50.4082" gradientUnits="userSpaceOnUse">
<stop/>
<stop offset="1" stop-opacity="0"/>
</linearGradient>
<linearGradient id="paint6_linear" x1="90.7344" y1="85.4748" x2="59.2344" y2="85.4748" gradientUnits="userSpaceOnUse">
<stop/>
<stop offset="1" stop-opacity="0"/>
</linearGradient>
<linearGradient id="paint7_linear" x1="80.7715" y1="137.675" x2="92.9415" y2="137.675" gradientUnits="userSpaceOnUse">
<stop/>
<stop offset="1" stop-opacity="0"/>
</linearGradient>
<clipPath id="clip0">
<rect width="346" height="148" fill="white"/>
</clipPath>
</defs>
</svg>
