<svg width="43" height="43" viewBox="0 0 43 43" fill="none" xmlns="http://www.w3.org/2000/svg">
<path d="M13.7866 15.3086H31.6417V20.5372H13.7866V15.3086ZM13.7866 22.8735H31.6416V28.1019H13.7866V22.8735Z" fill="#F0B90B"/>
<path d="M39.3764 12.3178L39.205 12.4747C40.9632 17.6241 44.377 32.3272 28.4842 37.7236C27.6613 38.0333 26.8159 38.2796 25.9554 38.4601C25.8485 38.4866 25.7425 38.5132 25.6342 38.539L25.642 38.5222C24.5722 38.7258 23.4855 38.8283 22.3965 38.8282C12.8425 38.8282 5.06973 31.0557 5.06973 21.5016C5.06973 11.9459 12.8425 4.17169 22.3965 4.17169C27.0958 4.17169 31.3626 6.05366 34.4872 9.10139L37.5666 6.28256C33.6753 2.40336 28.312 0 22.3964 0C10.5421 0 0.897949 9.64569 0.897949 21.5017C0.897949 33.3559 10.5422 43 22.3965 43C23.612 43 24.8037 42.8971 25.9647 42.7022L25.9681 42.6915C28.0205 42.1194 29.8334 41.4509 31.4334 40.7045C33.1661 39.867 48.1248 31.9573 39.3764 12.3178Z" fill="#F0B90B"/>
</svg>
