<svg width="56" height="29" viewBox="0 0 56 29" fill="none" xmlns="http://www.w3.org/2000/svg">
<path d="M31.7827 11.3165C31.7827 11.3165 38.2398 2.12307 46.2877 5.89847C46.2877 5.89847 54.8914 10.0867 50.4356 19.6499C50.4356 19.6499 47.5363 27.1491 37.5898 22.9867C37.5898 22.9867 33.0314 20.9055 28.8835 12.1507C28.8835 12.1507 24.7356 0.901869 13.1385 0.480469C13.1385 0.480469 2.36241 0.480469 0.292728 11.3165C0.292728 11.3165 -2.19603 22.1525 7.33992 27.1491C7.33992 27.1491 15.6272 30.8987 21.4343 25.4807L23.9231 27.5619L25.1632 18.3943L16.0463 20.4755L18.535 22.9781C18.535 22.9781 11.4878 27.1491 5.68931 20.0627C4.15842 17.3107 3.61962 10.4823 7.34848 7.14547C7.34848 7.14547 13.9766 0.480469 22.2639 9.64807C22.2639 9.64807 25.5822 14.2319 26.8223 17.9815C26.8223 17.9815 32.2104 27.5619 40.9167 28.3961C40.9167 28.3961 52.9329 30.4773 55.8322 16.7259C55.8322 16.7259 58.0986 4.63427 46.3048 1.30607C46.3048 1.30607 37.1879 -2.03073 29.3111 7.55827L31.7827 11.3165Z" fill="#F0B90B"/>
</svg>
