<svg width="57" height="43" viewBox="0 0 57 43" fill="none" xmlns="http://www.w3.org/2000/svg">
<path d="M0 43H4.4032V36.163H9.2966V43H13.6998V32.25H0V43ZM0 31.2696H13.6998L6.8542 21.5L0 31.2696ZM15.1704 43H27.8898V0H15.1704V43ZM23.4866 6.3554H25.929V9.7782H23.4866V6.3554ZM23.4866 13.6826H25.929V17.1054H23.4866V13.6826ZM23.4866 20.5196H25.929V23.9424H23.4866V20.5196ZM23.4866 27.8554H25.929V31.2782H23.4866V27.8554ZM23.4866 34.6924H25.929V38.1152H23.4866V34.6924ZM17.6128 6.3554H21.0356V9.7782H17.6128V6.3554ZM17.6128 13.6826H21.0356V17.1054H17.6128V13.6826ZM17.6128 20.5196H21.0356V23.9424H17.6128V20.5196ZM17.6128 27.8554H21.0356V31.2782H17.6128V27.8554ZM17.6128 34.6924H21.0356V38.1152H17.6128V34.6924ZM29.3604 43H42.0798V7.8174L29.3604 23.9424V43ZM35.2342 38.1152H31.3212V35.6728H35.2342V38.1152ZM35.2342 33.712H31.3212V31.2696H35.2342V33.712ZM35.2342 29.8076H31.3212V27.3652H35.2342V29.8076ZM40.6092 12.7022V17.0968H37.1864L40.6092 12.7022ZM36.6962 19.0576H40.6092V21.5H36.6962V19.0576ZM36.6962 22.962H40.6092V25.4044H36.6962V22.962ZM36.6962 27.3652H40.6092V29.8076H36.6962V27.3652ZM36.6962 31.2696H40.6092V33.712H36.6962V31.2696ZM36.6962 35.6728H40.6092V38.1152H36.6962V35.6728ZM35.2342 19.5478V25.413H30.831L35.2342 19.5478ZM43.5504 25.413H56.76V28.8358H43.5504V25.413ZM43.5504 43H56.76V29.8076H43.5504V43ZM50.8862 31.2696H54.7992V33.712H50.8862V31.2696ZM50.8862 35.6728H54.7992V38.1152H50.8862V35.6728ZM45.5026 31.2696H49.4156V33.712H45.5026V31.2696ZM45.5026 35.6728H49.4156V38.1152H45.5026V35.6728Z" fill="#F0B90B"/>
</svg>
