<svg width="51" height="43" viewBox="0 0 51 43" fill="none" xmlns="http://www.w3.org/2000/svg">
<path d="M0.000732422 21.4957C0.000732422 21.4957 1.13706 35.0724 16.9853 40.7301V41.865C16.9853 41.865 16.9853 43 18.1216 43H32.8421C32.8421 43 33.9785 43 33.9785 41.865V40.7301C33.9785 40.7301 49.8353 35.6399 50.963 21.4957H0.000732422ZM33.0574 19.7932L36.6729 19.7846C36.8365 19.6213 40.6587 15.7177 36.7676 10.0428C34.1076 6.16497 36.6041 0.0515897 36.6299 0L32.6528 0.0257948C32.5495 0.283743 30.0616 6.4917 33.6169 11.6765C36.0617 15.2362 33.264 19.5697 33.0574 19.7932ZM14.3683 19.7932L17.9839 19.7846C18.1474 19.6213 21.9696 15.7177 18.0786 10.0428C15.4186 6.16497 17.9236 0.0515897 17.9408 0L13.9637 0.0257948C13.8604 0.283743 11.3726 6.4917 14.9279 11.6765C17.3813 15.2362 14.5835 19.5697 14.3683 19.7932ZM23.4331 19.7932L27.0486 19.7846C27.2122 19.6213 31.0344 15.7177 27.1433 10.0428C24.4747 6.16497 26.9798 0.0515897 27.0056 0L23.0285 0.0257948C22.9252 0.283743 20.4373 6.4917 23.9926 11.6765C26.4374 15.2362 23.6397 19.5697 23.4331 19.7932Z" fill="#F0B90B"/>
</svg>
